<svg id="Layer_1" enable-background="new 0 0 128 128" height="512" viewBox="0 0 128 128" width="512" xmlns="http://www.w3.org/2000/svg"><path d="m6.3 27.8h115.4v72.4h-115.4z" fill="#cc561e"/><path d="m64 93.5c-2.2-1.6-4.7-3-7.2-4v10.7c0 4 3.2 7.2 7.2 7.2s7.2-3.2 7.2-7.2v-10.7c-2.5 1-5 2.4-7.2 4z" fill="#cc561e"/><path d="m16.3 93.5s9-7.2 23.8-7.2 23.9 7.2 23.9 7.2 9-7.2 23.8-7.2 23.8 7.2 23.8 7.2v-65.7s-9-7.2-23.8-7.2-23.8 7.2-23.8 7.2-9-7.2-23.8-7.2-23.8 7.2-23.8 7.2v65.7z" fill="#f1f1fb"/><path d="m123.4 76.6v4.5c0 1-.8 1.8-1.8 1.8s-1.8-.8-1.8-1.8v-4.5c0-1 .8-1.8 1.8-1.8s1.8.8 1.8 1.8zm0-48.8v39.1c0 1-.8 1.8-1.8 1.8s-1.8-.8-1.8-1.8v-37.3h-6.5v63.9c0 1.5-1.7 2.3-2.8 1.4-.1-.1-8.8-6.9-22.7-6.9-5.1 0-10.1.9-14.8 2.7v7.7h46.9v-8.1c0-1 .8-1.8 1.8-1.8s1.8.8 1.8 1.8v9.8c0 1-.8 1.8-1.8 1.8h-48.9c-1 4.9-5.7 8-10.6 7.1-3.6-.7-6.4-3.5-7.1-7.1h-48.8c-1 0-1.8-.8-1.8-1.8v-54.3c0-1 .8-1.8 1.8-1.8s1.8.8 1.8 1.8v52.6h47v-7.7c-4.7-1.8-9.8-2.7-14.8-2.7-14 0-22.7 6.8-22.7 6.9-1.2.9-2.8.1-2.8-1.4v-63.9h-6.7v6.9c0 1-.8 1.8-1.8 1.8s-1.8-.8-1.8-1.8v-8.7c0-1 .8-1.8 1.8-1.8h9.4c7.2-4.8 15.7-7.4 24.4-7.2 8.4-.1 16.7 2.3 23.8 6.8 7.1-4.6 15.4-6.9 23.8-6.8 8.7-.1 17.2 2.4 24.4 7.2h9.4c1.2.1 1.9.9 1.9 1.8zm-61.1 62.4v-61.5c-6.6-4.2-14.3-6.5-22.1-6.4-7.8-.1-15.5 2.1-22.1 6.4v61.5c13.3-7.5 30.3-7.8 44.2 0zm7.2 2c-1.5.7-3 1.6-4.4 2.6-.6.5-1.6.5-2.2 0-1.4-1-2.9-1.9-4.4-2.6v8c0 3 2.5 5.5 5.5 5.5s5.5-2.5 5.5-5.5zm40.4-63.5c-13.5-8.5-30.7-8.5-44.2 0v61.5c13.7-7.7 30.4-7.7 44.2 0zm-36.9 3.5c-.9.3-1.4 1.3-1.1 2.2s1.3 1.4 2.2 1.1c8.9-3 18.5-3 27.3 0 .9.3 1.9-.2 2.2-1.1s-.2-1.9-1.1-2.2c-9.5-3.2-19.9-3.2-29.5 0zm29.6 11c-9.6-3.3-20-3.3-29.6 0-.9.3-1.4 1.3-1.1 2.2s1.3 1.4 2.2 1.1c8.9-3 18.5-3 27.3 0 .9.3 1.9-.2 2.2-1.1.4-.9 0-1.9-1-2.2zm0 10.9c-9.6-3.3-20-3.3-29.6 0-.9.3-1.4 1.3-1.1 2.2s1.3 1.4 2.2 1.1c8.9-3 18.5-3 27.3 0 .9.3 1.9-.2 2.2-1.1.4-.9-.1-1.9-1-2.2zm0 11c-9.6-3.3-20-3.3-29.6 0-.9.3-1.4 1.3-1.1 2.2s1.3 1.4 2.2 1.1c8.9-3 18.5-3 27.3 0 .9.3 1.9-.2 2.2-1.1.4-.9 0-1.9-1-2.2zm0 10.9c-9.6-3.3-20-3.3-29.6 0-.9.3-1.4 1.3-1.1 2.2s1.3 1.4 2.2 1.1c8.9-3 18.5-3 27.3 0 .9.3 1.9-.2 2.2-1.1.4-.9 0-1.9-1-2.2zm-76.1-40.5c8.9-3 18.5-3 27.3 0 .9.3 1.9-.2 2.2-1.1s-.2-1.9-1.1-2.2c-9.6-3.3-20-3.3-29.6 0-.9.3-1.4 1.3-1.1 2.2.4 1 1.4 1.4 2.3 1.1zm28.5 7.7c-9.6-3.3-20-3.3-29.6 0-.9.3-1.4 1.3-1.1 2.2s1.3 1.4 2.2 1.1c8.9-3 18.5-3 27.3 0 .9.3 1.9-.2 2.2-1.1.4-.9-.1-1.9-1-2.2zm0 10.9c-9.6-3.3-20-3.3-29.6 0-.9.3-1.4 1.3-1.1 2.2s1.3 1.4 2.2 1.1c8.9-3 18.5-3 27.3 0 .9.3 1.9-.2 2.2-1.1s-.1-1.9-1-2.2zm0 11c-9.6-3.3-20-3.3-29.6 0-.9.3-1.4 1.3-1.1 2.2s1.3 1.4 2.2 1.1c8.9-3 18.5-3 27.3 0 .9.3 1.9-.2 2.2-1.1.4-.9-.1-1.9-1-2.2zm0 10.9c-9.6-3.3-20-3.3-29.6 0-.9.3-1.4 1.3-1.1 2.2s1.3 1.4 2.2 1.1c8.9-3 18.5-3 27.3 0 .9.3 1.9-.1 2.3-1 .3-.9-.1-1.9-1.1-2.3z"/></svg>
