<svg xmlns="http://www.w3.org/2000/svg" width="1049.965" height="1510.7"  xmlns:v="https://vecta.io/nano"><g fill="transparent"><path d="M902.43 563.7s179.4 57.2 104 539l-115.3-84s13.1 82.9-137.8 205v.9c-.8 0-1.7-.1-2.5-.1-25.3 0-46 20.7-46 46 0-12.7-5.2-24.2-13.5-32.5s-19.8-13.5-32.5-13.5c-25.3 0-46 20.7-46 46v47.9c-15.2 8.7-31.1 17.6-48 26.5a86.22 86.22 0 0 1-41.3 10.2c-7.2 0-14.3-.9-21.2-2.7a92.17 92.17 0 0 1-20-7.8c-15.2-8.2-29.8-16.3-43.6-24.4v-49.7c0-12.7-5.2-24.2-13.5-32.5s-19.8-13.5-32.5-13.5c-25.3 0-46 20.7-46 46 0-12.7-5.2-24.2-13.5-32.5s-19.8-13.5-32.5-13.5c-1.1 0-2.3 0-3.4.1v-.2c-153-124.2-139.2-208.1-139.2-208.1l-115.9 83.3c-72.3-482.3 107.5-538.3 107.5-538.3-159.4-140.7-36-292.8-36-292.8C47.93 66.6 126.83 25 126.83 25l139.9 84c79-85.8 261-82.8 261-82.8s182-1.9 260.5 84.5l140.5-83.2s78.6 42.1 11.5 243.6c0 0 122.5 152.9-37.8 292.6zm-376.8 19.5s57.5-21.5 57.5-97.2-57.5-94.1-57.5-94.1-57.5 21.5-57.5 97.2c.1 75.7 57.5 94.1 57.5 94.1z"/><path d="M583.13 486c0 75.7-57.5 97.2-57.5 97.2s-57.5-18.4-57.5-94.1 57.5-97.2 57.5-97.2 57.5 18.4 57.5 94.1zm213.7 784.5v169.2c0 25.3-20.7 46-46 46s-46-20.7-46-46v-169.2c0-25.3 20.7-46 46-46 .8 0 1.7 0 2.5.1 11.7.6 22.2 5.7 30 13.4 8.3 8.4 13.5 19.9 13.5 32.5z"/><path d="M704.83 1270.5v169.2c0 25.3-20.7 46-46 46s-46-20.7-46-46v-169.2c0-25.3 20.7-46 46-46 12.7 0 24.2 5.2 32.5 13.5 8.3 8.4 13.5 19.9 13.5 32.5zm-266.2 49.7v119.5c0 25.3-20.7 46-46 46-12.6 0-24.1-5.2-32.5-13.5-8.3-8.3-13.5-19.8-13.5-32.5v-169.2c0-25.3 20.7-46 46-46 12.7 0 24.2 5.2 32.5 13.5s13.5 19.8 13.5 32.5z"/><path d="M346.63 1270.5v169.2c0 25.3-20.7 46-46 46s-46-20.7-46-46v-169.2c0-24.2 18.9-44.1 42.6-45.9 1.1-.1 2.2-.1 3.4-.1 12.7 0 24.2 5.2 32.5 13.5 8.4 8.4 13.5 19.9 13.5 32.5z"/></g><g fill="none" stroke="#d90429"><g stroke-linecap="round" stroke-linejoin="round" stroke-miterlimit="10" stroke-width="50"><path d="M346.63 1439.7c0 25.3-20.7 46-46 46s-46-20.7-46-46v-169.2c0-24.2 18.9-44.1 42.6-45.9 1.1-.1 2.2-.1 3.4-.1 12.7 0 24.2 5.2 32.5 13.5s13.5 19.8 13.5 32.5"/><path d="M438.63 1320.2v119.5c0 25.3-20.7 46-46 46-12.6 0-24.1-5.2-32.5-13.5-8.3-8.3-13.5-19.8-13.5-32.5v-169.2c0-25.3 20.7-46 46-46 12.7 0 24.2 5.2 32.5 13.5s13.5 19.8 13.5 32.5v49.7m266.2 119.5c0 25.3-20.7 46-46 46s-46-20.7-46-46v-169.2c0-25.3 20.7-46 46-46 12.7 0 24.2 5.2 32.5 13.5s13.5 19.8 13.5 32.5"/></g><g stroke-linejoin="round" stroke-miterlimit="10" stroke-width="50"><path d="M753.33 1224.6c11.7.6 22.2 5.7 30 13.4 8.3 8.3 13.5 19.8 13.5 32.5v169.2c0 25.3-20.7 46-46 46s-46-20.7-46-46v-169.2c0-25.3 20.7-46 46-46 .8 0 1.6 0 2.5.1z"/><path d="M209.53 377.9c0-46.1 37.3-83.4 83.4-83.4s83.4 37.4 83.4 83.4m298.9 0c0-46.1 37.3-83.4 83.4-83.4s83.4 37.4 83.4 83.4m-544.8 846.5c-153-124.2-139.2-208.1-139.2-208.1l-115.9 83.3c-72.2-482.3 107.6-538.3 107.6-538.3-159.4-140.7-36-292.8-36-292.8C47.93 66.6 126.83 25 126.83 25l139.9 84c79-85.8 261-82.8 261-82.8m85.1 1292.2c-15.2 8.7-31.1 17.6-48 26.5a86.22 86.22 0 0 1-41.3 10.2c-7.2 0-14.3-.9-21.2-2.7a92.17 92.17 0 0 1-20-7.8c-15.2-8.2-29.8-16.3-43.6-24.4m89-1294s182-1.9 260.5 84.5l140.5-83.2s78.6 42.1 11.5 243.6c0 0 122.5 152.9-37.8 292.6 0 0 179.4 57.2 104 539l-115.3-84s13.1 82.9-137.8 205m-227.7-831.8s-57.5 21.5-57.5 97.2 57.5 94.1 57.5 94.1m0 0s57.5-21.5 57.5-97.2-57.5-94.1-57.5-94.1m-306.6 368.3l74.9 74.9 72.6-72.6m85.4-2.3l74.9 74.9 72.6-72.6m85.3-2.3l74.9 74.9 72.6-72.6m-496.7 156.4l74.1 75.6 73.3-71.8m85.4-1.4l74.1 75.6 73.4-71.8m-263.9 153.2l74.1 75.6 73.4-71.8" stroke-linecap="round"/></g></g></svg>
